<svg xmlns="http://www.w3.org/2000/svg" width="164" height="41" fill="none" viewBox="0 0 164 41"><defs/><mask id="a" width="41" height="41" x="0" y="0" maskUnits="userSpaceOnUse"><circle cx="20.5" cy="20.5" r="20.5" fill="#91D111"/></mask><g mask="url(#a)"><circle cx="20.5" cy="20.5" r="20.5" fill="#91D111"/><path stroke="#fff" stroke-width="1.814" d="M-.273 22.638l11.83-5.667 4.33-10.478L26.102-.428M14.02 41.284l11.187-15.082 17.94-6.496"/></g><path fill="#fff" d="M58.635 10.212h-6.55L48.85 28.626h3.025l1.105-6.313h3.472c4.209 0 6.918-2.578 7.445-5.919.526-3.499-1.579-6.182-5.262-6.182zm2.263 5.919c-.342 1.92-1.842 3.34-4.13 3.34H53.48l1.13-6.418h3.605c2.051 0 2.998 1.237 2.683 3.078zm14.59-.658l-.367 2.131c-.868-1.578-2.42-2.473-4.446-2.473-3.683 0-6.76 2.71-7.47 6.63-.685 3.708 1.472 7.207 5.418 7.207 2.052 0 3.657-.71 4.814-1.894l-.263 1.552h2.841l2.315-13.153h-2.841zM69.466 26.26c-2.394 0-3.84-1.842-3.42-4.288.474-2.683 2.63-4.13 4.788-4.13 2.13 0 3.814 1.394 3.551 3.92l-.132.762c-.578 2.236-2.551 3.736-4.787 3.736zm23.04-16.047l-1.316 7.418c-.841-1.578-2.42-2.499-4.445-2.499-3.683 0-6.76 2.71-7.47 6.63-.685 3.708 1.472 7.207 5.418 7.207 2.052 0 3.683-.71 4.867-1.92l-.29 1.578h2.841l3.236-18.414h-2.841zM85.56 26.26c-2.394 0-3.867-1.842-3.446-4.288.474-2.683 2.657-4.13 4.814-4.13 2.13 0 3.814 1.368 3.551 3.893l-.131.763c-.579 2.236-2.552 3.762-4.788 3.762zm17.647-11.128c-3.893 0-7.182 2.815-7.84 6.656-.657 3.972 1.737 7.18 6.051 7.18 2.42 0 4.603-.92 6.024-2.682l-2.078-1.579c-.868 1.053-2.157 1.658-3.709 1.658-2 0-3.499-1-3.552-3.104h10.47c.131-.395.263-.974.316-1.184.736-3.84-1.737-6.945-5.682-6.945zm-4.709 5.788c.763-2 2.446-3.21 4.525-3.21 1.815 0 3.209.947 3.182 3.21h-7.707zm11.233 7.707h2.841l1.394-8.05 1.973-11.153h-2.841l-1.947 11.075-1.42 8.128zm10.426-11.18l.342-1.973h-2.841l-2.315 13.153h2.841l1.237-6.97c.631-2.71 2.893-3.473 4.63-3.342l.552-3.077c-1.684-.053-3.315.552-4.446 2.21zm15.973-1.973l-.368 2.131c-.869-1.578-2.421-2.473-4.446-2.473-3.683 0-6.761 2.71-7.471 6.63-.684 3.708 1.473 7.207 5.419 7.207 2.052 0 3.657-.71 4.814-1.894l-.263 1.552h2.841l2.315-13.153h-2.841zm-6.024 10.786c-2.394 0-3.841-1.842-3.42-4.288.474-2.683 2.631-4.13 4.788-4.13 2.131 0 3.814 1.394 3.551 3.92l-.132.762c-.578 2.236-2.551 3.736-4.787 3.736zm15.253-8.05h3.262l.5-2.736h-3.288l.657-3.682-2.972.841-.5 2.841h-2.42l-.5 2.736h2.42l-1.105 6.313c-.605 3.42 1.289 4.63 5.393 4.104l.447-2.552c-2.104.132-3.288.158-2.999-1.552l1.105-6.313zm11.27-3.078c-3.893 0-7.181 2.815-7.839 6.656-.658 3.972 1.736 7.18 6.05 7.18 2.42 0 4.604-.92 6.024-2.682l-2.078-1.579c-.868 1.053-2.157 1.658-3.709 1.658-1.999 0-3.499-1-3.551-3.104h10.469c.132-.395.263-.974.316-1.184.737-3.84-1.736-6.945-5.682-6.945zm-4.709 5.788c.763-2 2.447-3.21 4.525-3.21 1.815 0 3.209.947 3.183 3.21h-7.708z"/></svg>
